<svg width="960" height="240" viewBox="0 0 960 240" fill="none" xmlns="http://www.w3.org/2000/svg" role="img" aria-labelledby="title desc">
  <title id="title">Roman Bilousov</title>
  <desc id="desc">Independent Full-Stack Developer focused on CRM systems, internal tools, and AI workflows.</desc>
  <defs>
    <linearGradient id="bg" x1="0" y1="0" x2="960" y2="240" gradientUnits="userSpaceOnUse">
      <stop stop-color="#0B0F19"/>
      <stop offset="1" stop-color="#161B26"/>
    </linearGradient>
    <linearGradient id="line" x1="140" y1="0" x2="820" y2="240" gradientUnits="userSpaceOnUse">
      <stop stop-color="#2B3445" stop-opacity="0.8"/>
      <stop offset="1" stop-color="#4B5563" stop-opacity="0.2"/>
    </linearGradient>
  </defs>

  <rect x="0.5" y="0.5" width="959" height="239" rx="24" fill="url(#bg)"/>
  <rect x="0.5" y="0.5" width="959" height="239" rx="24" stroke="#2A3140"/>

  <path d="M64 70H896" stroke="url(#line)" stroke-opacity="0.55"/>
  <path d="M64 170H896" stroke="url(#line)" stroke-opacity="0.35"/>
  <path d="M760 40L900 40" stroke="#3A4254" stroke-opacity="0.55"/>
  <path d="M60 200L240 200" stroke="#3A4254" stroke-opacity="0.45"/>

  <circle cx="96" cy="88" r="5" fill="#94A3B8"/>
  <circle cx="116" cy="88" r="5" fill="#475569"/>
  <circle cx="136" cy="88" r="5" fill="#334155"/>

  <text x="64" y="122" fill="#F8FAFC" font-family="Inter, Segoe UI, Arial, sans-serif" font-size="34" font-weight="700" letter-spacing="-0.5">
    Roman Bilousov
  </text>
  <text x="64" y="152" fill="#9CA3AF" font-family="Inter, Segoe UI, Arial, sans-serif" font-size="16" font-weight="500">
    Independent Full-Stack Developer
  </text>

  <rect x="64" y="184" width="118" height="28" rx="14" fill="#111827" stroke="#374151"/>
  <rect x="194" y="184" width="132" height="28" rx="14" fill="#111827" stroke="#374151"/>
  <rect x="338" y="184" width="123" height="28" rx="14" fill="#111827" stroke="#374151"/>

  <text x="92" y="202" fill="#D1D5DB" font-family="Inter, Segoe UI, Arial, sans-serif" font-size="12" font-weight="600">CRM SYSTEMS</text>
  <text x="219" y="202" fill="#D1D5DB" font-family="Inter, Segoe UI, Arial, sans-serif" font-size="12" font-weight="600">INTERNAL TOOLS</text>
  <text x="369" y="202" fill="#D1D5DB" font-family="Inter, Segoe UI, Arial, sans-serif" font-size="12" font-weight="600">AI WORKFLOWS</text>

  <text x="682" y="118" fill="#E5E7EB" font-family="ui-monospace, SFMono-Regular, Menlo, Consolas, monospace" font-size="14">
    Next.js
  </text>
  <text x="682" y="142" fill="#94A3B8" font-family="ui-monospace, SFMono-Regular, Menlo, Consolas, monospace" font-size="14">
    TypeScript  Python  Supabase
  </text>
</svg>
